<svg version="1.1" id="Layer_1" xmlns="http://www.w3.org/2000/svg" xmlns:xlink="http://www.w3.org/1999/xlink" x="0px" y="0px"
	 width="100%" viewBox="0 0 480 480" enable-background="new 0 0 480 480" xml:space="preserve">
<path fill="#000000" opacity="1.000000" stroke="none" 
	d="
M481.000000,286.000000 
	C481.000000,350.965515 481.000000,415.931030 481.000000,480.948273 
	C321.119385,480.948273 161.238785,480.948273 1.000000,480.948273 
	C1.000000,431.313019 1.000000,381.625153 1.293401,331.174072 
	C2.047647,330.851379 2.639219,331.215118 2.949906,331.743866 
	C8.381480,340.987305 15.070778,349.159698 24.179564,354.940399 
	C46.459953,369.080261 70.314529,371.246674 95.477913,364.218658 
	C107.262085,360.927399 116.333893,353.943054 124.574860,345.450378 
	C124.856308,345.808258 124.975632,345.946014 125.060699,346.516388 
	C124.444214,351.447205 123.861977,355.945374 123.245422,360.708618 
	C143.014618,360.708618 162.888107,360.708618 182.696289,360.708618 
	C183.234772,354.773621 183.596954,349.055817 184.301102,343.380371 
	C185.760666,331.616089 187.491882,319.885437 188.939957,308.119843 
	C190.095871,298.728027 190.960648,289.300720 192.022156,279.896790 
	C193.301987,268.558685 194.647034,257.227875 195.975372,245.895248 
	C196.999130,237.160858 197.995651,228.422958 199.086105,219.696823 
	C200.335419,209.699463 201.720230,199.718994 202.962158,189.720764 
	C204.087265,180.662903 205.076782,171.588272 206.167358,162.526016 
	C207.413223,152.173447 208.793762,141.836258 209.946503,131.473557 
	C210.779358,123.986328 211.183044,116.450592 212.053085,108.968460 
	C213.217590,98.953964 214.631668,88.968208 215.969757,78.974289 
	C216.889221,72.107033 217.861694,65.246880 218.827148,58.262962 
	C198.882156,58.262962 179.114075,58.262962 159.124649,58.262962 
	C153.791885,104.187218 148.481644,149.917297 143.083298,196.406296 
	C136.243713,187.175369 127.944336,180.974869 118.594063,176.377838 
	C98.910789,166.700638 78.370255,166.588120 57.797417,172.794846 
	C33.382977,180.160553 15.536222,195.657959 3.935966,218.386932 
	C3.381048,219.474213 1.997614,220.138657 1.000004,221.000000 
	C1.000000,147.703369 1.000000,74.406746 1.000000,1.055062 
	C160.883179,1.055062 320.766388,1.055062 481.000000,1.055062 
	C481.000000,58.687088 481.000000,116.374886 480.531372,174.539276 
	C464.458557,175.015854 448.854340,175.015854 433.441040,175.015854 
	C432.631287,181.945953 431.887848,188.308197 431.144440,194.670441 
	C430.699402,194.898788 430.254364,195.127136 429.809326,195.355484 
	C428.360779,193.575577 427.016479,191.697388 425.446411,190.032059 
	C416.680908,180.734680 406.060272,174.098404 393.652985,171.570709 
	C384.257751,169.656647 374.376526,168.741302 364.833954,169.338181 
	C355.817139,169.902145 346.459656,171.816086 338.142395,175.276382 
	C323.345337,181.432556 310.381409,190.375580 301.013214,204.196686 
	C294.906769,213.205643 288.795746,222.043991 286.094635,232.649002 
	C283.118713,244.333115 279.398254,256.039337 278.311615,267.946686 
	C276.340698,289.543488 280.496033,310.576294 291.415405,329.421295 
	C300.005890,344.246948 311.887390,356.023590 328.773254,362.150940 
	C340.405518,366.371918 352.182709,366.089508 364.109924,365.995819 
	C382.660675,365.850067 398.636536,359.980225 411.286835,345.318359 
	C411.540497,347.862854 411.419067,350.375275 411.009033,352.839630 
	C409.550354,361.606354 409.009735,370.688690 406.278961,379.049713 
	C398.734131,402.150208 377.337189,411.542389 353.867096,405.337982 
	C341.545349,402.080658 335.655334,392.338654 331.499329,381.281097 
	C310.705261,381.281097 289.932312,381.281097 268.367035,381.281097 
	C269.942474,387.606964 271.006317,393.653900 272.964691,399.395691 
	C278.007263,414.179749 286.097015,426.868500 298.355072,437.011810 
	C313.366364,449.433502 330.907532,454.840057 349.722626,455.738922 
	C364.161102,456.428711 378.707123,456.845917 393.188721,454.102661 
	C411.165680,450.697235 427.556549,444.389618 440.890900,431.539612 
	C460.267700,412.866760 466.666779,388.592804 469.952240,363.056488 
	C470.784058,356.591034 471.274384,350.081177 472.131958,343.619659 
	C473.304108,334.788269 474.844604,326.003906 475.920105,317.162048 
	C477.123627,307.267761 477.955170,297.328491 479.072205,287.422729 
	C479.133087,286.882904 480.331238,286.471283 481.000000,286.000000 
M222.079407,184.811722 
	C221.052124,194.886230 220.095398,204.968613 218.975296,215.032791 
	C218.074600,223.125427 216.952362,231.193176 215.971329,239.277161 
	C214.636185,250.278915 213.292801,261.280060 212.047775,272.292206 
	C211.257660,279.280945 210.764374,286.304321 209.914764,293.285004 
	C208.735687,302.972443 207.364594,312.636749 206.042313,322.306396 
	C205.117493,329.069489 204.069717,335.816345 203.201096,342.586365 
	C202.427338,348.616882 201.824203,354.669342 201.130997,360.843750 
	C221.215805,360.843750 240.834641,360.843750 260.779419,360.843750 
	C268.181274,299.272095 275.570374,237.806366 283.048828,175.597382 
	C282.118225,175.481476 280.272186,175.058731 278.424591,175.051910 
	C263.430908,174.996567 248.436920,175.018951 233.443024,175.018112 
	C223.965576,175.017593 223.965576,175.017944 222.079407,184.811722 
M228.023499,85.653496 
	C223.333466,103.935104 228.129349,122.629753 248.674606,130.632202 
	C268.810974,138.475372 286.271545,127.871361 293.592621,109.520241 
	C300.693054,91.722221 290.114746,68.561378 272.535736,63.453224 
	C253.786118,58.004913 236.062256,64.424141 228.023499,85.653496 
z"/>
<path fill="#FDFEFF" opacity="1.000000" stroke="none" 
	d="
M481.000000,285.531342 
	C480.331238,286.471283 479.133087,286.882904 479.072205,287.422729 
	C477.955170,297.328491 477.123627,307.267761 475.920105,317.162048 
	C474.844604,326.003906 473.304108,334.788269 472.131958,343.619659 
	C471.274384,350.081177 470.784058,356.591034 469.952240,363.056488 
	C466.666779,388.592804 460.267700,412.866760 440.890900,431.539612 
	C427.556549,444.389618 411.165680,450.697235 393.188721,454.102661 
	C378.707123,456.845917 364.161102,456.428711 349.722626,455.738922 
	C330.907532,454.840057 313.366364,449.433502 298.355072,437.011810 
	C286.097015,426.868500 278.007263,414.179749 272.964691,399.395691 
	C271.006317,393.653900 269.942474,387.606964 268.367035,381.281097 
	C289.932312,381.281097 310.705261,381.281097 331.499329,381.281097 
	C335.655334,392.338654 341.545349,402.080658 353.867096,405.337982 
	C377.337189,411.542389 398.734131,402.150208 406.278961,379.049713 
	C409.009735,370.688690 409.550354,361.606354 411.009033,352.839630 
	C411.419067,350.375275 411.540497,347.862854 411.286835,345.318359 
	C398.636536,359.980225 382.660675,365.850067 364.109924,365.995819 
	C352.182709,366.089508 340.405518,366.371918 328.773254,362.150940 
	C311.887390,356.023590 300.005890,344.246948 291.415405,329.421295 
	C280.496033,310.576294 276.340698,289.543488 278.311615,267.946686 
	C279.398254,256.039337 283.118713,244.333115 286.094635,232.649002 
	C288.795746,222.043991 294.906769,213.205643 301.013214,204.196686 
	C310.381409,190.375580 323.345337,181.432556 338.142395,175.276382 
	C346.459656,171.816086 355.817139,169.902145 364.833954,169.338181 
	C374.376526,168.741302 384.257751,169.656647 393.652985,171.570709 
	C406.060272,174.098404 416.680908,180.734680 425.446411,190.032059 
	C427.016479,191.697388 428.360779,193.575577 429.809326,195.355484 
	C430.254364,195.127136 430.699402,194.898788 431.144440,194.670441 
	C431.887848,188.308197 432.631287,181.945953 433.441040,175.015854 
	C448.854340,175.015854 464.458557,175.015854 480.531372,175.007935 
	C481.000000,211.687561 481.000000,248.375122 481.000000,285.531342 
M346.380707,296.940521 
	C348.057678,298.935211 349.421356,301.358124 351.464203,302.852753 
	C361.988251,310.552673 373.104950,315.751862 386.916565,313.154175 
	C401.606354,310.391296 412.838928,303.400482 418.994965,289.617279 
	C425.012238,276.144592 427.468414,262.320526 422.450287,247.680573 
	C418.357574,235.740417 410.943085,227.394852 398.720978,224.488571 
	C392.271637,222.954987 385.335754,222.920502 378.640320,223.080292 
	C363.664001,223.437714 352.114655,230.235535 345.740448,243.895493 
	C337.659424,261.213135 337.226532,278.859039 346.380707,296.940521 
z"/>
<path fill="#FDFFFF" opacity="1.000000" stroke="none" 
	d="
M124.412750,345.230286 
	C116.333893,353.943054 107.262085,360.927399 95.477913,364.218658 
	C70.314529,371.246674 46.459953,369.080261 24.179564,354.940399 
	C15.070778,349.159698 8.381480,340.987305 2.949906,331.743866 
	C2.639219,331.215118 2.047647,330.851379 1.293401,330.705444 
	C1.000000,294.645782 1.000000,258.291534 1.000004,221.468658 
	C1.997614,220.138657 3.381048,219.474213 3.935966,218.386932 
	C15.536222,195.657959 33.382977,180.160553 57.797417,172.794846 
	C78.370255,166.588120 98.910789,166.700638 118.594063,176.377838 
	C127.944336,180.974869 136.243713,187.175369 143.083298,196.406296 
	C148.481644,149.917297 153.791885,104.187218 159.124649,58.262962 
	C179.114075,58.262962 198.882156,58.262962 218.827148,58.262962 
	C217.861694,65.246880 216.889221,72.107033 215.969757,78.974289 
	C214.631668,88.968208 213.217590,98.953964 212.053085,108.968460 
	C211.183044,116.450592 210.779358,123.986328 209.946503,131.473557 
	C208.793762,141.836258 207.413223,152.173447 206.167358,162.526016 
	C205.076782,171.588272 204.087265,180.662903 202.962158,189.720764 
	C201.720230,199.718994 200.335419,209.699463 199.086105,219.696823 
	C197.995651,228.422958 196.999130,237.160858 195.975372,245.895248 
	C194.647034,257.227875 193.301987,268.558685 192.022156,279.896790 
	C190.960648,289.300720 190.095871,298.728027 188.939957,308.119843 
	C187.491882,319.885437 185.760666,331.616089 184.301102,343.380371 
	C183.596954,349.055817 183.234772,354.773621 182.696289,360.708618 
	C162.888107,360.708618 143.014618,360.708618 123.245422,360.708618 
	C123.861977,355.945374 124.444214,351.447205 125.377380,346.386169 
	C125.771378,344.982452 125.814438,344.141571 125.914398,342.189575 
	C125.072578,343.894196 124.742661,344.562225 124.412750,345.230286 
M64.463333,235.978989 
	C61.161671,241.270309 57.489922,246.371292 54.647442,251.898743 
	C50.654404,259.663574 50.008209,268.321594 51.180939,276.718781 
	C52.113232,283.394379 53.698624,290.519379 57.090424,296.191223 
	C62.998241,306.070435 72.076820,311.885834 83.994431,314.267151 
	C105.793396,318.622864 126.459846,305.018951 134.088104,286.356506 
	C137.777863,277.329559 138.367538,268.025970 138.002747,258.549469 
	C137.476944,244.890427 130.241425,234.767838 119.229004,227.934525 
	C102.918671,217.813843 78.437622,220.372299 64.463333,235.978989 
z"/>
<path fill="#FDFFFF" opacity="1.000000" stroke="none" 
	d="
M222.308289,184.416718 
	C223.965576,175.017944 223.965576,175.017593 233.443024,175.018112 
	C248.436920,175.018951 263.430908,174.996567 278.424591,175.051910 
	C280.272186,175.058731 282.118225,175.481476 283.048828,175.597382 
	C275.570374,237.806366 268.181274,299.272095 260.779419,360.843750 
	C240.834641,360.843750 221.215805,360.843750 201.130997,360.843750 
	C201.824203,354.669342 202.427338,348.616882 203.201096,342.586365 
	C204.069717,335.816345 205.117493,329.069489 206.042313,322.306396 
	C207.364594,312.636749 208.735687,302.972443 209.914764,293.285004 
	C210.764374,286.304321 211.257660,279.280945 212.047775,272.292206 
	C213.292801,261.280060 214.636185,250.278915 215.971329,239.277161 
	C216.952362,231.193176 218.074600,223.125427 218.975296,215.032791 
	C220.095398,204.968613 221.052124,194.886230 222.308289,184.416718 
z"/>
<path fill="#FCFEFE" opacity="1.000000" stroke="none" 
	d="
M228.026886,85.230995 
	C236.062256,64.424141 253.786118,58.004913 272.535736,63.453224 
	C290.114746,68.561378 300.693054,91.722221 293.592621,109.520241 
	C286.271545,127.871361 268.810974,138.475372 248.674606,130.632202 
	C228.129349,122.629753 223.333466,103.935104 228.026886,85.230995 
z"/>
<path fill="#000000" opacity="1.000000" stroke="none" 
	d="
M346.194519,296.606689 
	C337.226532,278.859039 337.659424,261.213135 345.740448,243.895493 
	C352.114655,230.235535 363.664001,223.437714 378.640320,223.080292 
	C385.335754,222.920502 392.271637,222.954987 398.720978,224.488571 
	C410.943085,227.394852 418.357574,235.740417 422.450287,247.680573 
	C427.468414,262.320526 425.012238,276.144592 418.994965,289.617279 
	C412.838928,303.400482 401.606354,310.391296 386.916565,313.154175 
	C373.104950,315.751862 361.988251,310.552673 351.464203,302.852753 
	C349.421356,301.358124 348.057678,298.935211 346.194519,296.606689 
z"/>
<path fill="#000000" opacity="1.000000" stroke="none" 
	d="
M64.718445,235.724731 
	C78.437622,220.372299 102.918671,217.813843 119.229004,227.934525 
	C130.241425,234.767838 137.476944,244.890427 138.002747,258.549469 
	C138.367538,268.025970 137.777863,277.329559 134.088104,286.356506 
	C126.459846,305.018951 105.793396,318.622864 83.994431,314.267151 
	C72.076820,311.885834 62.998241,306.070435 57.090424,296.191223 
	C53.698624,290.519379 52.113232,283.394379 51.180939,276.718781 
	C50.008209,268.321594 50.654404,259.663574 54.647442,251.898743 
	C57.489922,246.371292 61.161671,241.270309 64.718445,235.724731 
z"/>
<path fill="#000000" opacity="1.000000" stroke="none" 
	d="
M124.574867,345.450378 
	C124.742661,344.562225 125.072578,343.894196 125.914398,342.189575 
	C125.814438,344.141571 125.771378,344.982452 125.411629,345.953552 
	C124.975632,345.946014 124.856308,345.808258 124.574867,345.450378 
z"/>
</svg>